<?xml version="1.0" standalone="no"?>
<!DOCTYPE svg PUBLIC "-//W3C//DTD SVG 20010904//EN"
 "http://www.w3.org/TR/2001/REC-SVG-20010904/DTD/svg10.dtd">
<svg version="1.0" xmlns="http://www.w3.org/2000/svg"
 width="184.000000pt" height="170.000000pt" viewBox="0 0 184.000000 170.000000"
 preserveAspectRatio="xMidYMid meet">

<g transform="translate(0.000000,170.000000) scale(0.100000,-0.100000)"
fill="#000000" stroke="none">
<path d="M760 1579 c-98 -26 -221 -86 -292 -143 -113 -90 -212 -242 -249 -382
-26 -97 -31 -299 -10 -384 46 -186 193 -376 357 -462 122 -64 206 -82 384 -82
169 0 207 8 345 77 81 40 206 168 263 268 236 419 81 881 -343 1025 -65 22
-103 28 -205 31 -69 2 -145 0 -170 -4 -40 -8 -45 -12 -43 -34 1 -25 -15 -33
-149 -76 -15 -4 -18 1 -18 36 0 40 2 43 43 61 63 28 149 49 254 62 51 6 90 15
87 20 -10 16 -177 7 -254 -13z m375 -109 c39 -12 97 -35 130 -52 65 -32 170
-107 161 -115 -9 -9 -99 31 -159 70 -81 55 -184 88 -287 95 -51 3 -93 11 -105
19 -33 24 172 10 260 -17z m-535 -44 c0 -39 -4 -47 -32 -64 -18 -12 -46 -36
-63 -54 -25 -28 -26 -29 -3 -10 26 23 92 45 102 34 4 -3 6 -20 6 -37 0 -28 -5
-34 -52 -56 -29 -13 -85 -45 -124 -71 -81 -52 -84 -51 -84 31 0 44 4 51 67
120 67 73 156 151 174 151 5 0 9 -20 9 -44z m241 -72 c6 -3 -33 -21 -87 -38
l-99 -32 -7 25 c-4 14 -6 26 -5 27 1 1 36 8 77 16 74 15 100 15 121 2z m439
-60 c21 -6 86 -96 127 -178 19 -37 33 -69 31 -71 -2 -2 -41 5 -88 15 -47 10
-107 21 -134 24 -27 3 -50 7 -51 8 -11 13 -55 110 -55 122 0 8 18 34 39 56 40
42 55 45 131 24z m-395 -11 c-11 -3 -23 -8 -27 -11 -10 -10 57 -7 73 3 12 8
12 6 0 -8 -8 -10 -10 -24 -6 -34 5 -10 7 -22 6 -27 -1 -5 5 -4 13 4 18 14 22
25 6 15 -16 -10 -12 1 6 15 8 8 14 9 12 4 -1 -5 3 -19 10 -32 7 -12 11 -33 8
-45 -3 -12 -3 -17 0 -10 3 7 11 10 19 7 7 -3 22 -1 33 5 16 8 21 4 40 -35 12
-24 22 -47 22 -49 0 -3 -13 -5 -29 -5 -54 0 -192 -31 -267 -60 l-75 -29 -10
27 c-8 21 -59 201 -59 209 0 9 192 61 225 61 l20 0 -20 -5z m570 -40 c37 -18
58 -43 91 -106 67 -128 82 -305 40 -470 -33 -129 -45 -149 -46 -74 0 42 4 59
15 63 19 8 19 23 1 38 -10 8 -11 28 -6 81 8 73 2 165 -10 165 -3 0 -4 -15 -2
-32 6 -44 -4 -33 -12 13 -6 34 -5 36 18 32 13 -3 26 -1 29 4 5 9 -50 63 -61
60 -3 -1 -29 43 -57 98 -27 55 -59 113 -69 128 l-19 28 29 -7 c16 -4 43 -13
59 -21z m-512 2 c-3 -9 -8 -14 -10 -11 -3 3 -2 9 2 15 9 16 15 13 8 -4z m-298
-141 c13 -55 27 -107 30 -116 5 -13 -7 -24 -57 -49 -34 -17 -91 -50 -126 -72
-35 -21 -65 -37 -68 -34 -8 7 -54 187 -54 208 0 9 26 34 58 56 62 44 184 114
189 109 2 -2 14 -48 28 -102z m-357 -60 c-13 -19 -26 -34 -30 -34 -8 0 19 96
36 125 10 18 11 16 14 -18 2 -28 -3 -49 -20 -73z m849 -51 c8 -21 28 -77 43
-125 l28 -88 -40 0 c-25 0 -50 8 -65 20 -17 13 -40 20 -67 19 -31 0 -36 -2
-21 -8 11 -5 24 -6 29 -3 5 3 6 0 2 -6 -3 -6 -15 -9 -26 -7 -12 2 -18 0 -15
-5 3 -4 16 -7 30 -6 13 2 22 -1 19 -6 -3 -5 -11 -8 -17 -7 -7 1 -19 0 -27 -3
-48 -18 -175 -57 -177 -54 -7 6 -72 171 -78 197 -6 25 -3 28 62 53 69 27 225
64 276 65 23 1 31 -5 44 -36z m240 10 c34 -8 69 -20 78 -27 16 -12 50 -167 41
-189 -2 -7 -5 0 -5 16 -1 15 -5 27 -10 27 -5 0 -8 11 -6 25 1 14 -1 27 -5 30
-4 2 -7 -1 -8 -8 -4 -43 -24 -73 -43 -62 -3 3 -4 -7 -1 -22 3 -18 1 -24 -7
-19 -6 4 -9 11 -7 15 3 4 -1 8 -8 8 -7 0 -13 -6 -13 -13 0 -7 4 -11 8 -8 4 2
10 0 14 -6 9 -15 25 -2 25 21 0 10 4 19 9 19 6 0 6 -12 0 -30 -6 -16 -12 -30
-12 -30 -8 0 -161 31 -162 33 -1 1 -16 49 -34 107 -18 58 -35 114 -38 124 -6
18 -2 18 58 12 35 -4 92 -14 126 -23z m-1059 -27 c-2 -19 -1 -33 3 -30 4 2 10
-15 14 -38 4 -24 14 -60 21 -82 8 -21 13 -41 10 -43 -2 -2 -18 18 -35 44 l-32
48 2 -70 c2 -38 -1 -78 -5 -87 -5 -11 -1 -23 13 -35 12 -9 21 -22 21 -28 0
-20 67 -150 94 -183 16 -18 25 -39 22 -47 -3 -9 0 -15 9 -15 9 0 41 -21 73
-47 31 -25 89 -62 129 -81 40 -19 73 -38 73 -42 0 -4 -6 -13 -14 -19 -32 -27
-224 91 -301 184 -109 134 -155 260 -162 445 l-5 125 34 16 c18 9 35 17 37 18
2 0 1 -14 -1 -33z m418 -181 l41 -115 -46 -26 c-25 -15 -75 -47 -110 -71 -35
-24 -67 -41 -71 -36 -13 14 -68 125 -83 171 l-15 42 48 35 c47 35 180 115 190
115 3 0 23 -52 46 -115z m734 4 c-14 -25 -17 -24 -14 4 3 30 3 29 14 22 7 -4
7 -13 0 -26z m-241 -116 c6 -21 11 -47 10 -58 l0 -20 -8 20 c-8 19 -9 18 -13
-5 -4 -20 -6 -17 -7 11 0 22 -9 43 -21 54 -27 24 -25 35 5 35 19 0 26 -7 34
-37z m127 4 c2 -13 -1 -15 -10 -8 -9 7 -17 7 -26 -2 -12 -10 -12 -9 -1 6 9 11
10 17 2 17 -12 0 -13 -6 -13 -60 1 -20 -2 -26 -4 -15 -3 11 -9 35 -14 53 l-9
33 36 -3 c26 -2 37 -8 39 -21z m-907 -141 c-9 -8 -10 -8 -5 1 9 17 -4 45 -19
39 -8 -3 -12 2 -10 12 1 9 -2 20 -7 23 -5 3 -6 13 -2 23 5 12 12 4 31 -35 18
-40 21 -55 12 -63z m445 100 c-10 -8 -21 -12 -24 -10 -5 6 21 24 34 24 6 0 1
-6 -10 -14z m-56 -79 c20 -39 20 -39 1 -84 -10 -24 -19 -52 -19 -61 0 -15 -2
-15 -10 -2 -5 8 -10 11 -10 6 0 -5 -6 -3 -14 3 -10 9 -16 9 -21 1 -5 -8 -11
-8 -19 -1 -9 7 -17 7 -27 -2 -7 -6 -10 -8 -6 -3 4 5 1 16 -6 24 -6 9 -7 13 -1
9 6 -3 11 0 11 8 0 11 -3 12 -14 3 -8 -6 -11 -18 -8 -27 5 -13 4 -14 -7 -3 -9
9 -10 17 -1 31 9 14 8 18 -3 18 -7 0 -10 -5 -7 -10 3 -5 0 -7 -8 -5 -8 3 -13
10 -12 16 3 13 -24 9 -39 -6 -9 -9 -6 -11 11 -7 14 2 19 0 15 -7 -4 -6 -3 -8
4 -4 6 3 14 2 17 -4 4 -6 3 -9 -2 -8 -4 2 -8 -1 -8 -7 0 -6 4 -9 8 -7 5 1 5
-3 1 -9 -4 -7 -17 0 -38 21 l-31 31 40 36 c45 39 167 105 176 95 4 -4 16 -24
27 -45z m657 -114 c-13 -20 -22 -23 -43 -18 -15 4 -28 8 -30 10 -2 2 15 34 37
71 23 37 42 73 43 78 1 6 3 -18 5 -52 3 -47 0 -71 -12 -89z m-1014 70 c13 -16
12 -17 -3 -4 -17 13 -22 21 -14 21 2 0 10 -8 17 -17z m963 -122 c6 -9 -82 -94
-116 -112 -16 -8 -18 -6 -18 23 0 45 52 98 96 98 18 0 35 -4 38 -9z m-174
-115 c0 -32 -4 -35 -55 -56 -54 -22 -56 -22 -76 -5 -19 18 -18 19 53 56 40 20
74 37 76 38 1 0 2 -14 2 -33z m-193 -75 c10 -16 9 -20 -10 -25 -48 -13 -147
-6 -175 12 l-26 17 69 6 c127 10 130 10 142 -10z m-257 -11 c27 -21 21 -24
-29 -14 -25 5 -29 9 -20 20 15 18 19 17 49 -6z"/>
<path d="M876 1248 c3 -4 11 -5 19 -1 21 7 19 12 -4 10 -11 0 -18 -5 -15 -9z"/>
<path d="M957 1206 c-5 -12 -3 -15 5 -10 8 5 9 1 4 -12 -5 -14 -4 -16 4 -7 8
7 9 17 3 28 -9 16 -10 16 -16 1z"/>
<path d="M477 719 c6 -23 9 -24 16 -5 3 8 0 17 -7 19 -10 4 -12 -1 -9 -14z"/>
<path d="M729 459 c-7 -13 -7 -19 -1 -15 6 3 13 2 17 -4 4 -6 11 -8 16 -4 5 3
7 10 3 15 -3 5 -10 6 -16 3 -7 -5 -9 -1 -5 9 9 24 0 21 -14 -4z"/>
<path d="M794 462 c3 -5 1 -12 -6 -14 -8 -3 -9 -6 -1 -11 6 -4 13 0 17 8 3 8
0 17 -6 21 -6 4 -8 3 -4 -4z"/>
<path d="M1404 208 c-3 -4 0 -8 5 -8 6 0 11 -13 11 -29 0 -17 5 -33 10 -36 6
-4 10 8 10 29 0 27 4 36 17 36 9 0 13 3 10 7 -10 9 -58 10 -63 1z"/>
<path d="M1544 212 c-6 -4 -14 -16 -18 -27 -8 -19 -8 -19 -17 3 -14 36 -29 25
-28 -20 1 -35 2 -38 8 -18 7 24 7 24 18 5 l12 -20 16 20 c13 16 16 17 11 3 -3
-10 -1 -20 4 -23 6 -4 10 13 10 39 0 25 -1 46 -2 46 -2 0 -8 -4 -14 -8z"/>
</g>
</svg>
