<?xml version="1.0" standalone="no"?>
<!DOCTYPE svg PUBLIC "-//W3C//DTD SVG 20010904//EN"
 "http://www.w3.org/TR/2001/REC-SVG-20010904/DTD/svg10.dtd">
<svg version="1.0" xmlns="http://www.w3.org/2000/svg"
 width="900.000000pt" height="900.000000pt" viewBox="0 0 900.000000 900.000000"
 preserveAspectRatio="xMidYMid meet">

<g transform="translate(0.000000,900.000000) scale(0.100000,-0.100000)"
fill="#000000" stroke="none">
<path d="M4315 6748 c-98 -183 -232 -432 -298 -553 -65 -121 -153 -283 -194
-360 -42 -77 -101 -187 -133 -245 -31 -58 -89 -163 -127 -235 -39 -71 -86
-159 -105 -195 -20 -36 -129 -238 -243 -450 -114 -212 -249 -461 -300 -555
-51 -93 -109 -201 -130 -240 -60 -112 -147 -272 -393 -728 -128 -236 -232
-430 -232 -433 0 -4 590 -696 619 -725 12 -13 70 -24 221 -43 113 -15 281 -37
374 -49 114 -16 169 -20 172 -13 2 9 48 251 60 326 3 14 16 86 30 160 28 144
27 141 44 240 6 36 13 73 16 83 5 16 50 17 802 15 l796 -3 12 -68 c7 -37 15
-82 18 -100 3 -18 19 -102 35 -187 16 -85 32 -173 36 -195 3 -22 16 -94 29
-160 l22 -120 30 3 c26 3 423 56 499 67 17 2 74 10 127 16 l98 12 315 368
c173 202 315 371 315 375 0 6 -40 81 -350 654 -73 135 -269 497 -435 805 -167
308 -358 661 -425 785 -67 124 -157 290 -200 370 -42 80 -136 253 -207 385
-72 132 -159 294 -195 360 -36 66 -98 181 -138 255 -40 74 -99 182 -130 240
-31 58 -100 187 -154 288 -54 100 -99 182 -100 182 -1 0 -83 -150 -181 -332z"/>
</g>
</svg>
