<svg width="64" height="83" viewBox="0 0 64 83" fill="none" xmlns="http://www.w3.org/2000/svg">
<path fill-rule="evenodd" clip-rule="evenodd" d="M12.4444 0L0 0V3.15905e-06V55C0 70.464 12.536 83 28 83C43.464 83 56 70.464 56 55V0L43.5556 0V54.4445C43.5556 63.0355 36.5911 70 28 70C19.4089 70 12.4444 63.0355 12.4444 54.4445V0Z" fill="#06D6A0"/>
<path fill-rule="evenodd" clip-rule="evenodd" d="M20.4444 0L8 0V3.15905e-06V55C8 70.464 20.536 83 36 83C51.464 83 64 70.464 64 55V0L51.5556 0V54.4445C51.5556 63.0355 44.5911 70 36 70C27.4089 70 20.4444 63.0355 20.4444 54.4445V0Z" fill="#EF476F"/>
</svg>
