<?xml version="1.0" standalone="no"?>
<!DOCTYPE svg PUBLIC "-//W3C//DTD SVG 20010904//EN"
 "http://www.w3.org/TR/2001/REC-SVG-20010904/DTD/svg10.dtd">
<svg version="1.0" xmlns="http://www.w3.org/2000/svg"
 width="900.000000pt" height="600.000000pt" viewBox="0 0 900.000000 600.000000"
 preserveAspectRatio="xMidYMid meet">

<g transform="translate(0.000000,600.000000) scale(0.100000,-0.100000)"
fill="#000000" stroke="none">
<path d="M4200 5704 c-597 -63 -1181 -312 -1610 -687 -477 -417 -786 -919
-940 -1522 -63 -249 -84 -420 -85 -700 0 -322 29 -542 110 -824 106 -367 328
-792 544 -1041 l39 -45 17 60 c101 348 337 882 539 1219 189 314 317 479 555
716 533 531 1213 953 1893 1176 64 21 115 41 112 46 -3 4 1 6 8 3 7 -2 78 13
158 35 80 22 134 39 120 38 -14 -1 -31 2 -39 6 -10 7 -12 5 -6 -4 5 -8 3 -11
-6 -8 -8 3 -13 11 -11 17 1 7 -2 10 -8 6 -6 -3 -8 -10 -5 -15 3 -5 1 -11 -4
-14 -19 -12 -22 16 -4 37 l18 22 -23 -19 c-13 -12 -20 -26 -17 -36 3 -10 0
-17 -8 -17 -19 0 -14 32 8 57 22 24 27 47 14 56 -5 3 -6 10 -3 16 4 7 2 8 -5
4 -6 -4 -8 -13 -4 -19 13 -22 11 -35 -8 -53 -21 -19 -26 -6 -6 16 10 12 9 12
-5 1 -12 -9 -16 -22 -13 -40 2 -14 1 -32 -4 -39 -5 -9 -8 -2 -9 18 0 18 -3 35
-6 38 -3 3 0 12 8 21 12 13 12 19 1 34 -13 18 -13 18 -20 -2 -3 -10 -8 -29
-10 -42 -6 -30 -15 -37 -15 -10 0 12 7 38 15 58 8 20 13 38 10 41 -3 3 -1 10
5 16 5 7 5 17 -1 26 -8 12 -9 11 -7 -5 2 -15 -2 -19 -17 -18 -11 1 -14 0 -7
-3 6 -3 9 -10 6 -15 -3 -6 -11 -5 -20 2 -11 9 -11 15 -3 25 6 8 16 11 22 7 5
-3 7 -1 3 5 -3 6 -2 13 2 16 5 3 8 18 7 33 -1 15 3 35 9 43 8 13 8 13 -4 2 -8
-7 -15 -26 -15 -42 0 -17 -4 -29 -10 -27 -5 1 -10 14 -9 29 0 15 -3 25 -6 23
-11 -7 -51 41 -43 50 5 4 2 5 -6 0 -11 -6 -13 -2 -9 18 3 16 0 31 -8 38 -8 6
-12 15 -9 19 3 4 -2 13 -10 20 -8 7 -13 16 -10 20 3 5 1 11 -5 15 -6 4 -7 12
-3 18 11 18 12 38 2 31 -5 -3 -7 -9 -4 -14 3 -5 1 -11 -4 -14 -22 -14 -21 17
0 42 l23 27 -28 -27 c-23 -21 -27 -30 -18 -41 9 -10 8 -18 -4 -33 -15 -19 -15
-19 -10 1 3 11 1 27 -4 35 -7 11 -2 23 18 45 l27 30 -32 -29 c-18 -17 -33 -26
-33 -21 0 5 15 25 33 45 l32 35 -37 -34 c-47 -43 -50 -30 -5 19 l32 35 -37
-34 c-44 -41 -51 -31 -10 13 l27 31 -32 -29 c-37 -34 -46 -21 -10 13 14 12 23
32 23 46 -2 37 -13 39 -12 2 1 -21 -3 -31 -12 -29 -8 1 -11 -2 -8 -7 3 -5 -1
-14 -10 -21 -13 -12 -14 -10 -10 14 3 15 1 24 -5 21 -12 -8 -12 2 1 25 6 10 6
21 2 24 -5 3 -9 0 -10 -7 -3 -18 -10 -61 -12 -67 -1 -3 -5 4 -9 15 -5 11 -5
25 -2 30 4 6 8 21 8 35 1 14 -1 19 -4 12 -3 -6 -9 -9 -14 -6 -6 4 -6 10 0 18
8 9 5 18 -9 31 -16 14 -18 21 -9 34 6 9 0 3 -15 -12 -14 -15 -26 -23 -26 -16
0 7 8 21 17 31 24 27 24 44 0 65 -22 18 -22 18 -6 -2 17 -22 19 -46 4 -43 -5
2 -9 6 -8 10 2 4 -6 23 -16 42 -17 29 -18 36 -6 46 13 11 13 46 0 59 -4 3 -4
-6 -1 -21 3 -17 -1 -32 -10 -39 -13 -10 -14 -8 -10 15 3 15 1 24 -5 21 -5 -4
-9 -1 -9 6 0 7 -3 9 -6 6 -4 -4 -2 -13 4 -20 7 -8 9 -17 5 -20 -3 -4 0 -13 6
-21 8 -9 8 -16 2 -20 -9 -6 -19 13 -22 39 0 6 -5 18 -10 27 -7 12 -4 20 8 27
10 6 13 11 8 11 -6 0 -16 -5 -23 -12 -9 -9 -11 -4 -7 20 2 18 -1 34 -6 38 -5
3 -7 9 -4 13 2 5 -4 16 -14 25 -24 21 -37 5 -21 -25 7 -11 9 -23 6 -26 -3 -3
-11 7 -18 21 -9 22 -9 32 1 48 9 14 10 23 2 31 -8 8 -6 17 7 31 17 21 17 21
-6 2 -15 -13 -19 -23 -12 -30 16 -16 12 -30 -5 -16 -20 17 -19 33 5 55 20 18
20 19 1 39 -10 12 -17 29 -16 38 2 10 0 20 -4 23 -15 9 -5 -44 12 -63 16 -18
16 -20 -3 -37 -11 -10 -20 -13 -20 -7 0 6 5 14 11 17 7 5 4 15 -9 29 -12 13
-19 33 -17 54 1 18 -2 35 -5 37 -4 2 -6 -23 -5 -56 1 -33 -2 -56 -6 -52 -11
11 -18 112 -9 118 6 4 6 56 0 63 -1 1 -3 11 -4 21 0 11 -4 22 -7 25 -7 8 -6
-35 2 -49 9 -17 5 -55 -6 -55 -5 0 -11 9 -11 20 -1 11 -3 22 -4 25 -7 14 -5
71 2 82 5 6 5 14 -2 18 -6 3 -8 10 -5 15 3 5 1 11 -4 14 -10 7 -9 -13 2 -31 4
-6 4 -14 -1 -17 -10 -6 -9 -87 1 -103 5 -7 5 -13 1 -13 -3 0 -1 -6 5 -14 8 -9
8 -16 2 -20 -12 -8 -34 58 -34 101 0 18 -3 32 -6 31 -18 -2 -20 4 -9 25 14 25
20 52 10 42 -4 -4 -7 -10 -7 -13 0 -13 -47 -83 -52 -78 -3 3 5 21 17 40 12 20
18 36 15 36 -4 0 -1 8 6 18 13 15 12 16 -3 3 -10 -7 -16 -16 -14 -20 3 -4 1
-13 -3 -20 -13 -21 -20 2 -8 29 6 14 11 32 11 40 1 8 4 20 8 26 4 6 1 11 -6
11 -8 0 -13 -11 -11 -26 2 -34 -20 -79 -28 -57 -3 8 -2 18 3 21 11 7 6 71 -6
65 -12 -7 -14 -29 -3 -36 5 -3 9 -10 9 -16 0 -23 -30 16 -31 41 -1 25 -2 25
-9 -4 -8 -33 -10 -32 -15 7 -3 21 0 26 14 23 10 -2 24 1 32 6 9 6 -9 9 -52 9
-52 0 -68 -4 -73 -16 -10 -25 -7 -56 4 -49 6 4 8 10 5 15 -10 17 7 38 31 38
27 0 29 -6 13 -28 -10 -13 -10 -13 -6 1 3 9 -1 16 -8 16 -10 0 -11 -5 -4 -19
6 -10 14 -16 19 -13 4 3 6 -10 4 -27 -3 -27 -2 -30 6 -13 10 19 10 19 6 -3 -2
-12 -1 -20 3 -17 5 2 7 -8 5 -23 l-4 -27 9 25 9 25 3 -25 c1 -14 1 -34 1 -45
-2 -16 0 -17 8 -5 9 13 10 13 10 0 0 -13 1 -13 11 0 9 13 10 13 8 0 -1 -8 3
-28 9 -43 7 -16 12 -34 13 -40 0 -7 4 -3 9 8 7 15 8 9 5 -20 -4 -32 -3 -35 4
-15 l9 25 3 -25 c1 -14 1 -34 1 -45 -2 -17 0 -18 9 -5 9 13 10 12 5 -3 -3 -10
-2 -16 4 -12 6 4 7 -2 4 -12 -5 -15 -4 -16 6 -3 9 12 10 10 5 -10 -5 -20 -4
-22 5 -10 10 13 11 13 9 0 -1 -8 -1 -24 1 -35 l1 -20 10 20 c9 19 9 19 5 -2
-4 -22 15 -48 27 -37 3 4 4 -6 1 -22 -3 -22 -2 -25 6 -14 8 11 9 6 5 -20 -3
-23 -2 -30 4 -21 7 11 10 9 16 -9 6 -18 9 -20 16 -9 7 10 8 5 5 -14 -3 -15 -1
-25 4 -22 4 3 6 -5 4 -17 -4 -22 -4 -22 6 -3 9 17 9 15 5 -10 -4 -24 -3 -27 6
-15 9 13 10 12 5 -3 -4 -12 -2 -16 6 -11 7 5 8 3 3 -6 -5 -8 -4 -11 2 -7 5 3
8 -7 7 -26 l-3 -32 8 30 c7 28 8 26 16 -25 8 -48 9 -51 14 -26 5 26 8 21 20
-35 13 -54 16 -60 22 -39 l8 25 -1 -25 c0 -14 1 -34 2 -45 l1 -20 10 20 c9 19
9 18 5 -3 -2 -12 0 -20 4 -17 4 3 6 -5 4 -17 -4 -22 -4 -22 6 -3 9 18 9 18 7
-5 -1 -15 3 -24 10 -23 7 2 10 -7 7 -25 -3 -17 -1 -22 4 -14 11 17 34 -31 26
-55 -5 -15 -4 -16 5 -3 9 12 10 9 6 -15 -4 -22 -3 -25 3 -10 8 17 9 16 16 -10
6 -23 9 -26 17 -14 6 9 8 1 4 -26 -4 -31 -2 -36 5 -20 10 19 10 19 6 -3 -2
-12 0 -20 4 -17 4 3 6 -5 4 -17 -4 -19 -3 -20 4 -4 7 15 10 11 21 -24 10 -33
15 -40 22 -29 7 10 8 5 4 -16 -4 -25 -4 -27 5 -10 10 19 10 19 6 -3 -2 -12 -1
-20 3 -17 8 4 11 -10 12 -55 0 -23 1 -24 10 -5 9 19 9 18 5 -2 -2 -13 1 -26 6
-30 7 -4 8 -1 3 7 -5 8 -4 11 3 6 6 -4 9 -14 6 -24 -5 -15 -4 -15 5 -2 11 13
12 13 10 0 -1 -8 -1 -24 1 -35 l1 -20 10 20 c9 19 9 19 5 -2 -2 -13 4 -29 15
-39 10 -9 20 -29 20 -43 1 -25 2 -25 10 4 l8 30 -3 -32 c-1 -18 1 -30 6 -27 5
3 7 0 6 -7 -2 -7 3 -13 11 -14 8 0 16 -7 18 -15 4 -13 3 -13 -6 0 -9 13 -11
12 -12 -5 l0 -20 -9 20 -9 20 -1 -20 c-1 -19 -2 -18 -10 3 -12 28 -21 28 -17
0 2 -13 2 -17 0 -10 -3 7 -9 10 -14 6 -5 -3 -7 -9 -5 -13 3 -4 -1 -8 -8 -8 -9
0 -12 11 -10 35 2 27 1 32 -10 23 -7 -6 -12 -22 -10 -36 1 -14 -2 -23 -7 -19
-5 3 -7 10 -3 15 3 6 -2 19 -12 30 -9 10 -14 19 -10 19 3 0 -1 14 -9 31 -9 17
-14 33 -11 37 3 3 6 0 6 -7 0 -7 5 -9 10 -6 8 5 8 11 0 20 -7 9 -8 15 -1 20 7
4 5 15 -6 31 -9 14 -20 21 -25 16 -13 -13 -18 -51 -7 -57 9 -6 13 7 10 35 -2
13 0 13 8 1 10 -16 0 -45 -22 -57 -6 -4 -9 -4 -5 1 4 4 3 14 -3 22 -6 7 -8 13
-4 13 4 0 1 8 -6 17 -8 9 -9 14 -3 10 13 -8 27 17 16 28 -4 4 -7 11 -7 16 0 5
-4 8 -10 7 -5 -2 -9 -6 -8 -9 1 -3 -5 -6 -12 -6 -10 0 -12 4 -5 12 6 7 4 19
-5 33 -9 11 -14 25 -13 29 2 4 -1 8 -7 8 -5 0 -9 -4 -7 -8 1 -5 -2 -6 -8 -2
-7 4 -7 12 -2 18 9 13 9 24 -3 50 -4 10 -5 21 -1 24 3 4 6 -1 6 -11 0 -9 5
-14 10 -11 7 4 7 12 0 25 -5 10 -10 28 -10 40 0 12 -4 19 -9 15 -6 -3 -8 -14
-6 -25 2 -11 0 -22 -5 -25 -6 -4 -7 -40 0 -40 1 0 3 -8 5 -18 2 -11 0 -16 -3
-12 -4 4 -8 11 -8 16 -1 5 -3 11 -4 14 -1 3 -3 13 -4 23 -1 9 -10 32 -19 50
-10 17 -14 32 -11 32 4 0 -3 11 -16 25 -13 14 -20 25 -16 25 4 0 -3 15 -16 33
-13 17 -23 36 -23 40 0 4 -7 12 -15 17 -9 6 -10 10 -3 10 6 0 15 -5 18 -10 9
-15 25 -2 25 21 0 11 -5 17 -10 14 -6 -4 -7 -12 -4 -18 4 -7 3 -8 -2 -4 -5 5
-9 13 -9 18 0 5 -4 8 -10 7 -5 -2 -9 -6 -8 -9 1 -3 -5 -6 -13 -6 -10 0 -11 4
-4 11 6 6 4 16 -7 29 -10 10 -13 17 -8 15 6 -2 10 2 10 7 0 6 -2 9 -5 8 -3 -1
-5 23 -5 52 1 41 -1 52 -10 45 -7 -6 -11 -21 -10 -35 2 -13 -4 -30 -13 -37
-15 -11 -15 -11 -5 3 10 12 10 18 0 29 -9 10 -9 11 1 6 6 -4 12 -3 12 2 0 17
-13 22 -29 10 -13 -10 -14 -10 -3 2 18 21 15 35 -5 19 -15 -12 -16 -12 -8 1
14 23 13 59 -1 71 -10 9 -12 3 -10 -26 2 -20 1 -34 -2 -30 -4 3 -7 16 -8 28
-1 12 -4 29 -6 37 -3 8 -3 12 -1 7 3 -4 9 -4 14 -1 6 3 5 11 -2 20 -10 13 -14
12 -29 -1 -12 -11 -20 -13 -25 -5 -3 6 -1 9 5 8 7 -2 14 7 16 19 2 14 -1 22
-8 20 -7 -1 -13 7 -15 18 -2 11 -5 34 -7 50 -2 17 -5 32 -7 35 -1 3 -3 10 -4
15 -4 29 -18 55 -26 49 -5 -3 -6 -11 -2 -17 4 -7 8 -19 9 -27 0 -8 4 -22 8
-31 4 -9 6 -20 5 -25 -1 -5 0 -11 1 -14 7 -19 7 -39 -1 -34 -5 3 -7 9 -4 14 3
5 1 11 -4 15 -6 3 -8 12 -5 20 3 8 2 20 -2 27 -5 7 -9 21 -9 31 0 9 -4 16 -10
15 -5 -2 -9 -11 -9 -21 1 -10 -1 -15 -5 -12 -3 4 -6 10 -6 13 0 4 -4 14 -9 22
-5 8 -5 12 -1 7 9 -8 45 20 45 36 0 6 -8 3 -19 -7 -17 -16 -18 -15 -17 6 1 13
-2 31 -7 42 -6 11 -5 22 2 29 20 20 12 31 -9 12 -11 -10 -17 -21 -15 -26 3 -4
2 -10 -2 -12 -5 -3 -9 9 -9 26 -1 18 1 26 3 19 3 -6 9 -9 14 -6 6 3 6 11 -2
20 -6 7 -16 11 -23 7 -15 -10 -40 -13 -31 -5 4 4 11 7 16 7 5 0 8 5 7 10 -2 6
-7 9 -13 7 -5 -2 -7 0 -3 4 4 4 3 13 -2 20 -6 6 -10 16 -9 20 4 21 -2 35 -11
29 -6 -4 -8 -10 -6 -14 3 -4 -2 -8 -10 -8 -11 0 -10 5 5 21 10 12 17 26 14 33
-2 6 1 14 6 18 6 3 11 11 11 17 0 7 -4 7 -13 -1 -8 -6 -17 -8 -21 -4 -4 4 -5
-4 -2 -19 3 -18 -1 -31 -12 -40 -9 -7 -14 -8 -9 -3 4 4 0 16 -9 26 -10 11 -12
19 -4 24 6 3 9 2 8 -3 -3 -9 2 -12 17 -12 3 0 1 9 -5 21 -8 15 -15 18 -24 10
-9 -8 -13 -7 -13 4 0 8 4 12 8 9 14 -8 26 30 20 61 -7 34 -19 23 -16 -16 1
-15 -4 -26 -11 -26 -7 0 -12 3 -11 6 1 3 -5 16 -12 29 -7 13 -10 30 -7 37 2 7
-2 19 -9 25 -8 7 -13 16 -10 20 3 4 -2 13 -10 20 -13 11 -15 10 -12 -6 1 -11
7 -26 12 -34 13 -21 15 -41 4 -34 -5 3 -7 9 -4 14 3 4 -1 13 -9 19 -19 16 -15
54 6 57 10 1 16 -1 15 -4 -1 -4 3 -7 8 -7 6 0 9 3 8 8 -5 12 15 8 20 -5 3 -8
6 -5 6 5 1 17 -10 18 -161 16 -90 -2 -215 -8 -278 -15z m540 -69 c0 4 7 2 15
-5 8 -7 13 -16 10 -20 -3 -4 4 -19 14 -32 12 -15 16 -29 11 -37 -5 -10 -11 -5
-19 15 l-11 29 5 -30 c4 -29 4 -29 -6 -5 -6 14 -20 43 -30 64 -15 30 -16 36
-4 26 8 -7 15 -9 15 -5z m107 -134 c-2 -9 5 -40 16 -69 10 -29 16 -60 13 -68
-4 -10 -2 -12 6 -8 6 4 8 3 5 -2 -3 -6 -2 -16 4 -24 6 -10 7 -1 3 26 -3 23 -2
44 3 47 5 3 9 -14 10 -39 1 -24 5 -49 10 -56 4 -7 8 -21 9 -30 2 -28 3 -30 14
-23 8 5 8 11 0 20 -8 10 -8 15 0 20 6 4 9 14 5 22 -4 13 -3 14 10 3 11 -9 12
-16 5 -25 -11 -13 1 -58 18 -69 6 -3 8 -15 5 -26 -3 -11 2 -31 11 -45 9 -14
14 -31 10 -37 -4 -7 -3 -8 4 -4 8 5 12 -1 12 -16 0 -33 15 -55 23 -33 5 10 3
14 -4 9 -8 -5 -10 3 -7 24 2 17 1 29 -3 27 -4 -3 -7 5 -6 18 0 12 -4 31 -8 42
-8 18 -7 18 8 6 9 -7 15 -17 12 -21 -3 -5 -1 -11 4 -14 5 -4 8 -18 6 -34 -2
-15 1 -32 6 -38 6 -7 12 -22 14 -34 2 -12 12 -34 21 -47 9 -15 11 -22 3 -18
-8 6 -10 4 -4 -5 9 -14 17 -80 10 -80 -2 0 -10 28 -16 63 -11 51 -14 58 -20
37 -7 -25 -7 -25 -8 -2 -1 13 -10 35 -21 49 -11 14 -20 31 -20 38 0 7 -7 18
-15 25 -8 7 -12 16 -9 21 3 5 0 17 -5 26 -8 13 -10 14 -11 4 0 -11 -4 -9 -14
4 -8 11 -12 23 -10 27 3 5 2 14 -3 21 -4 6 -8 17 -8 22 0 6 -7 10 -15 10 -9 0
-15 10 -15 25 0 15 -5 24 -13 22 -8 -1 -11 2 -7 8 4 6 -3 26 -15 44 -31 52
-54 135 -40 151 8 10 8 15 -1 21 -8 5 -9 3 -4 -6 6 -9 4 -11 -5 -5 -7 5 -11 4
-8 -1 3 -5 3 -17 -1 -26 -5 -15 -8 -13 -18 7 -6 14 -7 23 -2 20 4 -3 14 3 21
14 9 15 15 17 26 9 7 -6 11 -18 9 -27z m-217 -25 c0 -2 -8 -10 -17 -17 -16
-13 -17 -12 -4 4 13 16 21 21 21 13z m85 -86 c2 -12 1 -20 -2 -16 -4 4 -8 16
-10 28 -4 28 6 18 12 -12z m32 -67 c0 -9 -4 -10 -14 -2 -7 6 -13 12 -13 14 0
1 6 2 13 2 8 0 14 -6 14 -14z m39 -80 c-1 -7 -8 -19 -16 -26 -12 -10 -12 -9
-2 4 8 10 8 19 1 26 -6 6 -5 10 5 10 7 0 13 -6 12 -14z m95 -190 c13 -16 12
-17 -3 -4 -17 13 -22 21 -14 21 2 0 10 -8 17 -17z m254 -103 c-3 -5 -1 -12 5
-15 8 -5 7 -11 -1 -21 -6 -7 -8 -22 -4 -31 6 -17 7 -17 19 -1 12 17 14 17 30
-1 12 -13 14 -21 6 -26 -8 -5 -6 -13 6 -26 12 -13 14 -22 7 -31 -7 -8 -7 -22
-2 -37 8 -20 11 -22 26 -10 12 10 15 11 9 1 -4 -7 7 -39 28 -77 19 -36 33 -71
30 -79 -9 -24 14 -27 30 -4 13 18 24 21 14 4 -2 -2 6 -13 16 -25 18 -19 17
-25 -1 -18 -5 1 -7 6 -5 11 2 5 -5 3 -14 -5 -16 -13 -17 -12 -11 6 7 20 7 20
-8 0 -10 -12 -14 -31 -10 -50 l5 -30 -12 30 c-6 17 -19 44 -28 60 -8 17 -16
44 -15 62 0 17 -4 29 -9 25 -5 -3 -6 2 -3 12 5 11 3 15 -5 10 -8 -5 -9 -2 -5
10 5 11 3 15 -5 10 -8 -5 -9 -2 -5 10 4 10 3 15 -3 11 -6 -3 -10 -1 -10 6 0 7
-3 10 -6 7 -3 -3 4 -24 15 -47 12 -22 21 -46 21 -53 0 -13 -62 109 -65 127 0
6 -7 9 -14 7 -7 -1 -9 2 -6 8 8 13 -23 83 -33 76 -4 -2 -8 8 -9 22 -1 15 -4
47 -6 72 -5 57 1 69 19 35 8 -15 12 -31 9 -35z m-124 -113 c-6 -8 -7 -18 -3
-22 4 -5 1 -5 -6 -1 -10 6 -10 11 -1 22 6 8 14 14 16 14 3 0 0 -6 -6 -13z m10
-54 c13 -16 12 -17 -3 -4 -10 7 -18 15 -18 17 0 8 8 3 21 -13z m54 -103 c10
-11 16 -20 13 -20 -3 0 -13 9 -23 20 -10 11 -16 20 -13 20 3 0 13 -9 23 -20z
m46 -77 c13 -16 12 -17 -3 -4 -17 13 -22 21 -14 21 2 0 10 -8 17 -17z m14 -32
c3 -5 2 -12 -3 -15 -5 -3 -9 1 -9 9 0 17 3 19 12 6z m213 -30 c1 -1 4 0 5 2
11 7 34 -27 30 -44 -4 -14 5 -31 28 -55 19 -19 34 -43 34 -52 0 -9 4 -22 8
-28 4 -7 0 -17 -8 -24 -14 -11 -14 -15 1 -31 13 -14 20 -16 31 -8 16 14 16 9
0 -27 -7 -16 -17 -30 -24 -31 -16 -3 -37 25 -38 51 0 12 -6 20 -13 18 -8 -1
-10 2 -7 8 4 6 1 19 -7 28 -19 24 -50 82 -44 82 3 0 -3 23 -14 50 -11 28 -20
55 -20 59 0 7 17 8 38 2z m-191 -26 c0 -8 -4 -12 -9 -9 -5 3 -6 10 -3 15 9 13
12 11 12 -6z m72 -119 c9 -11 9 -16 -1 -22 -7 -4 -10 -4 -6 1 4 4 3 14 -3 22
-6 7 -9 13 -6 13 2 0 10 -6 16 -14z m-22 -41 c0 -8 -4 -12 -9 -9 -5 3 -6 10
-3 15 9 13 12 11 12 -6z m73 -20 c0 -7 -30 -13 -34 -7 -3 4 4 9 15 9 10 1 19
0 19 -2z m234 -84 c3 -5 -1 -14 -8 -20 -12 -10 -13 -8 -9 8 6 23 9 25 17 12z
m-12 -66 c4 -19 2 -23 -7 -15 -6 5 -15 6 -20 2 -4 -4 -1 3 6 16 8 12 14 22 15
22 1 0 4 -11 6 -25z m-161 -22 c13 -16 12 -17 -3 -4 -17 13 -22 21 -14 21 2 0
10 -8 17 -17z"/>
<path d="M4744 5616 c1 -8 5 -18 8 -22 4 -3 5 1 4 10 -1 8 -5 18 -8 22 -4 3
-5 -1 -4 -10z"/>
<path d="M4851 5410 c0 -8 4 -22 9 -30 12 -18 12 -2 0 25 -6 13 -9 15 -9 5z"/>
<path d="M4943 5235 c0 -8 5 -11 10 -8 6 4 8 -5 5 -21 -3 -14 -2 -28 1 -31 13
-8 11 53 -2 64 -10 8 -14 7 -14 -4z"/>
<path d="M5045 5051 c-3 -5 -2 -12 3 -15 5 -3 9 1 9 9 0 17 -3 19 -12 6z"/>
<path d="M5116 4961 c-4 -5 -2 -20 3 -33 9 -21 9 -20 8 9 -2 36 -3 38 -11 24z"/>
<path d="M5155 4870 c-4 -6 -11 -7 -17 -4 -7 4 -8 2 -4 -5 4 -6 12 -8 18 -5 6
4 8 -1 4 -13 -4 -12 -1 -25 9 -33 8 -7 13 -16 10 -20 -3 -5 0 -12 6 -16 7 -4
9 -3 5 4 -3 6 -2 13 3 17 6 3 3 18 -9 37 -10 17 -17 35 -14 40 3 4 3 8 0 8 -3
0 -8 -5 -11 -10z m25 -55 c14 -19 14 -19 -2 -6 -10 7 -18 18 -18 24 0 6 1 8 3
6 1 -2 9 -13 17 -24z"/>
<path d="M5264 4625 c2 -16 7 -28 12 -26 10 3 8 16 -6 41 -6 10 -8 6 -6 -15z"/>
<path d="M5280 4571 c0 -6 4 -13 10 -16 6 -3 7 1 4 9 -7 18 -14 21 -14 7z"/>
<path d="M5324 4529 c-5 -8 -3 -9 6 -4 10 6 12 4 7 -10 -4 -9 -3 -23 2 -29 5
-6 11 -26 14 -44 3 -19 13 -42 23 -53 9 -10 14 -19 9 -19 -4 0 -2 -7 5 -15 7
-8 17 -12 23 -8 6 4 8 0 4 -10 -3 -8 1 -21 9 -28 10 -8 11 -15 4 -24 -7 -9 -6
-16 4 -24 10 -8 16 -8 25 2 8 11 5 19 -14 37 -17 16 -22 28 -16 39 11 23 -2
77 -18 73 -8 -2 -11 3 -8 12 4 9 1 15 -5 13 -7 -1 -12 3 -13 10 0 6 -4 15 -9
20 -5 4 -6 3 -2 -4 3 -6 1 -15 -5 -19 -8 -4 -9 6 -5 37 6 40 5 41 -10 23 -15
-19 -15 -18 -9 3 6 24 -9 40 -21 22z m86 -122 c4 1 10 -11 12 -26 4 -28 3 -29
-31 -22 -2 1 2 7 8 15 9 11 9 16 0 22 -8 5 -10 3 -5 -7 4 -8 -2 -3 -13 10 -12
12 -18 28 -14 34 4 6 11 3 20 -9 8 -10 18 -18 23 -17z m44 -138 c-3 -5 -10 -7
-15 -3 -5 3 -7 10 -3 15 3 5 10 7 15 3 5 -3 7 -10 3 -15z"/>
<path d="M4790 5696 c0 -8 60 -12 72 -4 8 4 -4 8 -29 8 -24 0 -43 -2 -43 -4z"/>
<path d="M4612 5678 c-10 -12 -10 -18 2 -27 8 -6 12 -19 9 -29 -2 -9 3 -26 11
-37 16 -22 18 -1 2 24 -6 9 -5 12 2 7 6 -3 15 1 21 11 8 15 10 14 16 -12 4
-17 8 -34 10 -40 1 -5 -2 -18 -6 -27 -6 -10 -5 -19 1 -23 9 -6 14 8 11 28 -1
5 3 6 8 2 6 -3 7 -13 4 -22 -4 -11 -3 -14 5 -9 13 8 6 52 -10 73 -6 7 -8 19
-5 26 2 7 -5 24 -16 37 -11 14 -18 18 -14 8 3 -9 -1 -22 -8 -28 -16 -13 -20
-7 -27 34 -3 17 -5 17 -16 4z"/>
<path d="M4908 5683 c6 -2 18 -2 25 0 6 3 1 5 -13 5 -14 0 -19 -2 -12 -5z"/>
<path d="M4839 5668 c-5 -18 -6 -38 -1 -34 7 8 12 36 6 36 -2 0 -4 -1 -5 -2z"/>
<path d="M5038 5663 c7 -3 16 -2 19 1 4 3 -2 6 -13 5 -11 0 -14 -3 -6 -6z"/>
<path d="M4725 5501 c-2 -5 -2 -19 1 -32 3 -13 6 -31 6 -39 1 -19 58 -81 69
-74 14 8 21 -16 9 -31 -7 -9 -8 -20 -2 -32 5 -10 7 -25 4 -33 -4 -13 -3 -13
11 -2 15 12 15 16 1 37 -8 13 -11 26 -6 29 14 8 22 -4 15 -22 -4 -10 -2 -13 5
-8 6 3 13 2 16 -3 4 -5 2 -12 -4 -16 -6 -4 -3 -20 9 -43 10 -20 16 -42 14 -49
-2 -6 1 -14 7 -18 11 -7 8 35 -4 54 -4 5 -1 13 5 17 8 5 9 3 4 -6 -5 -8 -4
-11 2 -7 6 4 9 -4 7 -18 -1 -14 2 -23 7 -20 5 4 6 0 3 -8 -3 -8 -1 -18 5 -21
6 -4 7 -14 4 -23 -4 -10 -2 -14 5 -9 11 7 11 44 -2 64 -4 7 -5 16 -2 21 3 4
-6 19 -19 31 -14 13 -25 27 -25 32 0 5 -11 26 -25 48 -14 23 -22 47 -19 57 5
14 4 15 -4 4 -8 -11 -14 1 -27 48 -10 34 -23 65 -29 68 -16 11 -35 12 -41 4z
m35 -65 c6 -16 13 -27 15 -24 3 3 -1 24 -9 46 -9 23 -13 42 -10 42 6 0 25 -49
29 -75 1 -11 6 -28 10 -38 4 -10 5 -21 1 -24 -3 -4 -6 1 -6 10 0 10 -5 16 -12
15 -7 -2 -12 4 -13 12 0 8 -5 14 -10 13 -6 -1 -10 8 -10 20 -1 12 -4 33 -8 47
-6 21 -6 22 3 5 5 -11 14 -33 20 -49z m111 -183 c13 -16 12 -17 -3 -4 -10 7
-18 15 -18 17 0 8 8 3 21 -13z"/>
<path d="M4949 5468 c-6 -20 -6 -39 0 -42 4 -3 7 6 7 20 0 20 -4 32 -7 22z"/>
<path d="M4990 5345 c0 -2 6 -8 13 -14 10 -8 14 -7 14 2 0 8 -6 14 -14 14 -7
0 -13 -1 -13 -2z"/>
<path d="M5053 5278 c-4 -7 -8 -22 -8 -33 -1 -12 -7 -19 -15 -17 -9 2 -5 -7 9
-22 28 -30 43 -36 17 -7 -10 11 -13 22 -8 25 6 3 9 14 7 24 -1 9 2 23 8 30 5
6 7 12 4 12 -3 0 -9 -6 -14 -12z"/>
<path d="M5015 5261 c-3 -5 -2 -12 3 -15 5 -3 9 1 9 9 0 17 -3 19 -12 6z"/>
<path d="M5068 5156 c4 -6 7 -14 7 -18 0 -19 11 -14 11 6 0 12 -6 23 -13 23
-6 0 -9 -5 -5 -11z"/>
<path d="M4887 5153 c-2 -5 -2 -17 0 -28 2 -11 4 -28 4 -37 0 -10 6 -17 12
-15 7 1 11 -6 11 -16 -1 -10 1 -16 4 -13 3 3 14 -1 24 -11 27 -24 22 -6 -11
36 -15 20 -27 46 -26 59 2 23 -10 39 -18 25z"/>
<path d="M4929 5126 c-16 -20 -15 -23 13 -59 23 -29 27 -41 19 -51 -8 -10 -8
-16 3 -25 8 -7 13 -20 11 -29 -2 -10 3 -25 10 -35 11 -15 14 -15 25 -2 18 22
30 9 25 -28 -2 -17 2 -44 9 -59 9 -17 10 -30 4 -36 -6 -6 -6 -12 1 -16 6 -4
11 -6 12 -4 0 2 2 10 4 18 2 8 7 24 11 35 7 18 6 19 -12 5 -10 -8 -16 -11 -12
-6 4 5 3 18 -3 29 -8 14 -8 18 0 13 6 -4 11 0 11 9 0 9 -4 14 -8 11 -5 -3 -8
3 -8 12 0 9 -2 31 -3 47 -2 29 -3 29 -12 7 -5 -14 -13 -20 -20 -16 -8 5 -9 3
-4 -6 5 -8 4 -11 -3 -6 -6 4 -8 14 -5 23 4 10 2 14 -4 10 -7 -5 -9 1 -5 15 3
12 1 19 -5 15 -5 -3 -10 0 -10 8 0 8 4 12 8 9 4 -2 9 -1 12 3 2 5 3 3 1 -2 -1
-6 4 -24 12 -40 l13 -30 -6 40 c-3 22 -14 51 -24 65 -10 14 -20 34 -22 45 -1
11 -7 27 -12 36 -9 15 -12 15 -26 -5z m27 -8 c4 -7 3 -8 -4 -4 -7 4 -12 0 -12
-10 0 -10 -3 -15 -6 -11 -7 6 2 37 10 37 3 0 8 -5 12 -12z m23 -73 c16 -20 16
-20 -6 -1 -13 11 -22 29 -22 40 1 20 2 20 6 1 3 -11 12 -29 22 -40z"/>
<path d="M5103 5118 c-1 -28 7 -33 11 -6 1 7 5 18 8 24 4 6 2 11 -5 11 -7 0
-13 -13 -14 -29z"/>
<path d="M5150 5076 c0 -2 8 -10 18 -17 15 -13 16 -12 3 4 -13 16 -21 21 -21
13z"/>
<path d="M5141 5036 c-9 -11 -9 -16 1 -22 7 -4 10 -4 6 1 -4 4 -3 14 3 22 6 7
9 13 6 13 -2 0 -10 -6 -16 -14z"/>
<path d="M5169 5038 c-7 -24 -4 -40 9 -50 15 -11 15 -11 6 2 -6 8 -10 23 -9
33 3 13 -2 26 -6 15z"/>
<path d="M5194 4956 c1 -8 5 -19 9 -22 4 -4 2 -13 -3 -19 -7 -9 -5 -17 7 -26
16 -13 17 -12 5 3 -9 11 -10 18 -2 23 8 5 7 11 -2 22 -7 9 -11 18 -10 20 2 3
1 7 -1 10 -3 3 -4 -2 -3 -11z"/>
<path d="M5064 4893 c0 -23 5 -41 11 -40 10 2 11 -10 1 -50 -2 -13 -1 -25 4
-28 11 -7 22 24 13 38 -3 7 -2 8 3 4 15 -14 15 -84 -1 -97 -12 -10 -11 -17 11
-46 15 -19 23 -34 18 -34 -4 0 3 -11 16 -25 13 -14 20 -25 16 -25 -3 0 0 -13
9 -30 9 -16 17 -30 19 -30 4 0 0 29 -5 40 -1 3 -3 17 -3 32 -1 16 -6 27 -11
25 -6 -1 -8 -6 -7 -12 2 -5 0 -6 -5 -2 -4 5 -8 18 -8 30 -1 12 -6 21 -12 20
-7 -2 -10 7 -7 24 4 21 2 24 -9 15 -11 -9 -14 -8 -14 3 0 7 5 13 11 12 6 -1
10 6 8 15 -1 9 2 19 8 23 5 3 7 0 4 -8 -3 -8 -1 -18 5 -22 8 -4 8 -12 1 -25
-7 -13 -7 -21 0 -25 5 -3 11 0 11 7 5 51 3 70 -9 80 -15 13 -51 86 -68 138
l-11 35 1 -42z"/>
<path d="M5227 4876 c-3 -8 5 -23 17 -35 18 -17 23 -18 23 -6 0 8 -3 13 -5 10
-10 -9 -31 17 -25 31 3 8 3 14 0 14 -3 0 -7 -6 -10 -14z"/>
<path d="M5255 4801 c-3 -5 -2 -12 3 -15 5 -3 9 1 9 9 0 17 -3 19 -12 6z"/>
<path d="M5165 4702 c-10 -34 -15 -65 -8 -58 13 13 30 -16 27 -45 -2 -18 0
-28 6 -24 5 3 7 23 4 43 -3 20 -7 49 -8 65 -4 35 -13 44 -21 19z"/>
<path d="M5207 4617 c-3 -8 -1 -20 4 -28 5 -8 9 -24 9 -35 0 -25 39 -78 40
-54 0 8 -7 28 -15 44 -9 16 -14 35 -11 41 2 6 -2 19 -9 28 -10 14 -14 15 -18
4z"/>
<path d="M5365 4621 c-3 -5 -2 -12 3 -15 5 -3 9 1 9 9 0 17 -3 19 -12 6z"/>
<path d="M5370 4585 c0 -2 6 -8 13 -14 10 -8 14 -7 14 2 0 8 -6 14 -14 14 -7
0 -13 -1 -13 -2z"/>
<path d="M5390 4545 c0 -2 6 -8 13 -14 10 -8 14 -7 14 2 0 8 -6 14 -14 14 -7
0 -13 -1 -13 -2z"/>
<path d="M5434 4525 c0 -13 3 -22 7 -19 8 4 6 30 -2 38 -3 3 -5 -5 -5 -19z"/>
<path d="M5267 4504 c-4 -10 -10 -26 -13 -34 -3 -10 0 -9 9 3 13 15 15 16 21
2 3 -8 2 -22 -1 -32 -5 -12 -3 -14 7 -8 9 5 11 4 6 -3 -4 -7 -4 -17 0 -23 5
-8 8 -8 13 0 4 6 7 -5 8 -24 1 -19 11 -47 22 -64 15 -21 18 -32 10 -37 -9 -5
-7 -11 5 -19 15 -12 15 -13 0 -19 -11 -4 -14 -12 -9 -24 6 -14 10 -31 14 -51
1 -2 10 4 21 14 19 17 18 41 -1 29 -5 -3 -6 -10 -3 -16 5 -7 2 -8 -5 -4 -7 5
-10 11 -7 14 3 3 0 12 -6 21 -7 9 -8 13 -3 8 4 -4 16 0 26 9 17 15 18 15 14
-5 -2 -11 0 -23 6 -26 5 -4 9 2 9 11 0 10 3 15 6 11 4 -3 3 -14 -1 -24 -4 -10
-9 -31 -10 -46 -2 -29 -1 -29 14 -8 14 18 19 19 31 9 8 -7 7 -4 -3 8 -9 11
-17 30 -17 41 0 11 -11 30 -25 43 -14 13 -25 28 -25 33 0 6 -12 25 -26 44 -14
19 -23 40 -21 47 3 8 -2 24 -11 37 -9 13 -24 41 -33 63 -13 32 -17 36 -22 20z
m114 -231 c12 -16 12 -17 -2 -6 -9 7 -20 9 -24 5 -5 -4 -5 -1 -1 6 9 16 11 15
27 -5z"/>
<path d="M5450 4495 c-7 -8 -16 -13 -20 -10 -13 8 -5 -24 8 -35 9 -7 9 -7 2 2
-7 8 -3 19 12 35 12 13 19 23 16 23 -3 0 -11 -7 -18 -15z"/>
<path d="M5229 4499 c0 -2 -2 -12 -4 -21 -2 -9 3 -22 10 -28 11 -9 13 -6 11
14 -2 22 -14 48 -17 35z"/>
<path d="M5256 4445 c-15 -23 -15 -28 -1 -47 13 -20 20 -18 16 5 -1 5 3 6 9 2
6 -3 8 -10 5 -15 -3 -5 -1 -11 5 -15 6 -4 8 -10 5 -15 -3 -5 -1 -11 5 -15 17
-11 11 29 -10 60 -11 17 -17 38 -14 48 8 24 -1 21 -20 -8z"/>
<path d="M5469 4453 c-13 -16 -12 -17 4 -4 16 13 21 21 13 21 -2 0 -10 -8 -17
-17z"/>
<path d="M5503 4385 c0 -8 4 -12 9 -9 5 3 6 10 3 15 -9 13 -12 11 -12 -6z"/>
<path d="M5535 4320 c-4 -6 -10 -8 -14 -6 -4 3 -8 -1 -8 -9 0 -13 4 -12 19 2
18 16 22 23 14 23 -3 0 -8 -5 -11 -10z"/>
<path d="M5531 4286 c-9 -10 -7 -17 6 -27 16 -12 17 -12 6 2 -10 12 -10 18 -1
27 7 7 9 12 6 12 -3 0 -11 -6 -17 -14z"/>
<path d="M5858 4213 c7 -3 16 -2 19 1 4 3 -2 6 -13 5 -11 0 -14 -3 -6 -6z"/>
<path d="M5697 4188 c-16 -10 20 -9 53 2 23 8 22 8 -8 7 -18 -1 -38 -5 -45 -9z"/>
<path d="M6228 3343 c7 -3 16 -2 19 1 4 3 -2 6 -13 5 -11 0 -14 -3 -6 -6z"/>
<path d="M6143 3333 c9 -2 23 -2 30 0 6 3 -1 5 -18 5 -16 0 -22 -2 -12 -5z"/>
<path d="M6055 3321 c-3 -5 0 -13 6 -17 7 -4 9 -3 5 4 -4 6 5 12 21 15 l28 4
-27 2 c-15 0 -29 -3 -33 -8z"/>
<path d="M5953 3313 c-18 -2 -33 -8 -33 -13 0 -4 -8 -6 -18 -3 -24 6 -207 -27
-437 -79 -1112 -249 -2006 -777 -2623 -1548 -164 -206 -372 -539 -479 -768
l-43 -93 48 -51 49 -51 29 39 c331 448 819 841 1417 1140 408 205 958 389
1462 488 283 56 807 126 946 126 27 0 49 3 49 8 0 4 34 6 76 4 41 -2 83 0 92
4 9 4 21 6 25 5 5 -1 6 3 2 9 -4 7 -12 7 -18 2 -18 -13 -80 -15 -72 -2 4 6 3
10 -2 9 -20 -3 -23 2 -13 24 11 21 10 21 -4 3 -11 -13 -12 -23 -6 -31 7 -9 0
-12 -28 -11 -35 1 -39 3 -39 28 0 21 3 25 13 17 7 -6 12 -16 10 -22 -1 -7 -1
-9 1 -4 3 4 10 4 16 0 7 -3 2 5 -10 18 -19 21 -21 28 -10 39 6 8 8 11 3 7 -5
-4 -15 -2 -23 4 -11 10 -11 15 -1 28 11 14 11 14 -3 4 -16 -13 -29 -8 -29 9 0
5 5 6 12 2 7 -5 8 -3 2 7 -5 8 -9 17 -10 22 -1 4 -3 9 -4 12 -1 3 -3 8 -4 13
-3 14 -25 47 -26 36 0 -5 5 -15 10 -20 8 -8 6 -15 -4 -23 -12 -10 -15 -9 -15
6 -2 59 -6 81 -12 77 -5 -2 -5 -12 -2 -21 5 -11 3 -14 -6 -9 -7 5 -11 17 -8
27 3 10 1 22 -4 25 -5 3 -7 9 -4 13 2 5 -4 16 -15 26 -18 16 -18 20 -6 34 11
12 12 21 5 31 -8 12 -9 11 -7 -5 2 -15 -2 -19 -17 -17 -15 2 -17 0 -6 -6 9 -7
10 -12 2 -16 -13 -8 -26 18 -16 34 3 6 11 8 16 4 5 -3 8 -2 7 3 -1 4 3 18 10
31 7 12 10 22 6 22 -3 0 0 8 7 18 13 15 12 16 -4 3 -9 -8 -15 -16 -13 -19 9
-8 -15 -43 -25 -37 -5 4 -9 3 -8 -2 3 -12 -21 -67 -26 -61 -8 8 22 83 32 81 5
-1 10 5 10 12 0 20 -26 -1 -36 -29 -5 -12 -10 -15 -14 -9 -4 6 4 25 18 41 16
19 22 33 15 37 -6 4 -9 3 -8 -2 2 -4 -1 -8 -7 -8 -5 0 -9 8 -9 17 1 10 -3 15
-7 12 -7 -4 -6 34 2 44 6 7 4 29 -4 40 -5 6 -6 12 -2 12 4 0 2 6 -4 13 -6 8
-7 18 -3 22 4 5 1 5 -6 1 -10 -6 -10 -11 -1 -22 6 -8 8 -14 4 -14 -4 0 -3 -6
2 -12 8 -12 10 -33 3 -40 -7 -8 -6 -69 1 -73 7 -5 4 -43 -4 -52 -3 -2 -8 18
-13 44 -11 69 -11 67 -5 78 9 17 10 35 1 40 -4 2 -7 -4 -6 -15 0 -11 -3 -18
-9 -17 -5 1 -10 12 -10 24 0 12 -4 25 -8 29 -4 5 -5 0 -1 -10 5 -14 4 -17 -4
-12 -19 11 -14 32 14 68 l26 33 -30 -32 c-17 -18 -33 -29 -36 -24 -3 4 6 19
19 31 14 13 25 28 25 34 0 5 -6 2 -13 -8 -12 -16 -14 -16 -26 -2 -8 9 -19 16
-25 16 -6 0 -4 -5 4 -10 8 -5 13 -10 10 -11 -3 0 -13 -2 -22 -4 -13 -2 -16 3
-13 24 2 14 4 27 6 29 1 1 2 5 3 10 1 4 4 12 7 17 3 6 5 17 4 25 0 8 6 18 15
22 16 7 -22 8 -77 1z m53 -28 c-1 -9 -6 -15 -12 -14 -5 0 -8 4 -7 8 1 4 -4 8
-12 8 -7 0 -12 -8 -10 -18 2 -10 0 -21 -6 -24 -5 -4 -9 7 -9 24 0 23 5 30 23
33 29 5 36 1 33 -17z m-60 -44 c3 -10 7 -11 19 -1 8 7 12 17 8 24 -4 6 1 5 10
-3 10 -8 14 -19 9 -25 -4 -6 -7 -22 -7 -36 0 -26 20 -34 42 -18 17 13 25 -8 8
-22 -15 -12 -8 -32 24 -72 8 -10 10 -18 6 -18 -4 0 -1 -8 8 -17 8 -10 16 -21
15 -26 0 -30 17 -95 29 -109 9 -10 12 -25 8 -36 -6 -22 9 -39 20 -22 9 14 25
3 25 -17 0 -13 -2 -14 -17 -2 -14 12 -16 12 -8 0 5 -8 4 -12 -1 -8 -6 3 -10
-6 -11 -21 0 -15 1 -19 4 -9 4 14 9 10 24 -20 10 -20 20 -46 20 -58 1 -14 4
-11 10 10 l8 30 -1 -30 c0 -16 1 -39 2 -50 l1 -20 10 20 c7 16 8 14 4 -10 -4
-22 -3 -26 4 -14 16 25 20 65 9 80 -8 11 -9 10 -4 -3 3 -10 1 -20 -4 -23 -6
-4 -10 4 -11 17 -1 47 -8 101 -15 107 -4 3 -4 -12 -1 -34 6 -40 6 -40 -7 -11
-7 16 -11 38 -8 48 4 18 6 18 23 2 10 -9 16 -20 14 -25 -3 -4 -1 -10 4 -14 6
-3 8 -12 5 -20 -3 -8 3 -26 14 -40 12 -15 19 -32 16 -40 -3 -7 -1 -16 5 -20 6
-3 11 -14 11 -23 -1 -13 -4 -11 -13 6 l-13 23 -12 -25 c-6 -14 -7 -28 -2 -31
5 -3 7 -15 5 -26 -4 -18 -2 -19 12 -7 14 11 16 11 8 -1 -5 -9 -4 -12 3 -7 7 4
9 -2 6 -18 -2 -14 0 -27 6 -31 6 -4 7 1 4 12 -5 17 -5 17 6 0 6 -9 15 -15 21
-12 5 4 6 -2 2 -12 -3 -10 -3 -15 1 -11 4 3 9 26 10 50 2 23 1 37 -1 30 -7
-19 -23 -4 -17 16 5 14 4 15 -5 2 -9 -13 -11 -13 -12 3 -3 53 -2 67 7 65 5 -2
9 -13 9 -25 0 -12 10 -32 23 -46 16 -17 20 -27 12 -32 -6 -4 -9 -14 -6 -22 17
-44 -48 -67 -79 -28 -16 19 -16 19 -10 -5 l6 -25 -15 24 c-7 14 -12 31 -9 38
10 25 -7 13 -21 -16 -9 -16 -12 -32 -8 -36 4 -5 2 -5 -5 -1 -7 4 -9 14 -6 23
4 10 2 14 -4 10 -7 -4 -10 0 -8 10 1 10 -5 26 -13 36 -13 15 -14 22 -4 37 18
30 14 35 -9 14 -15 -14 -20 -15 -17 -4 2 8 -3 14 -10 12 -10 -2 -10 2 -2 17
16 31 12 36 -12 15 -21 -18 -22 -18 -8 0 17 22 20 64 6 91 -6 11 -11 23 -12
28 -1 4 -2 10 -3 13 0 3 -6 2 -11 -1 -7 -4 -6 -14 2 -28 16 -28 18 -57 4 -54
-6 1 -9 -5 -8 -13 2 -8 1 -12 -3 -8 -4 3 -7 10 -7 15 0 4 -5 14 -11 22 -7 8
-12 21 -12 30 -1 32 -16 61 -28 54 -7 -3 -4 3 6 14 9 11 14 23 11 26 -4 4 -13
-1 -21 -11 -12 -15 -13 -14 -1 8 7 14 13 27 14 30 0 3 4 13 7 23 15 37 16 47
7 52 -9 5 -14 -18 -7 -29 1 -2 -6 -13 -16 -23 -9 -11 -15 -22 -12 -25 3 -2 -2
-5 -10 -5 -13 0 -13 3 -2 16 15 19 17 42 2 39 -5 -1 -9 -8 -7 -14 1 -7 -1 -15
-6 -18 -5 -3 -8 5 -6 17 1 12 -7 37 -17 55 -11 19 -17 37 -14 42 3 5 1 11 -5
15 -5 3 -10 11 -10 18 0 6 7 2 15 -9 8 -10 15 -16 15 -13 0 11 -29 75 -31 67
-3 -13 -6 -28 -9 -35 -1 -5 -2 -11 -2 -14 1 -3 -5 -6 -13 -6 -8 0 -12 4 -9 8
2 4 0 10 -6 14 -7 4 -7 12 0 25 7 14 3 26 -21 56 -17 22 -36 38 -42 36 -6 -2
-5 3 2 12 8 9 9 16 2 21 -19 11 -32 43 -21 50 6 4 10 3 9 -2 -1 -4 -1 -14 0
-22 1 -17 16 -5 16 12 0 7 9 12 20 12 11 -1 24 4 28 10 5 6 7 4 6 -5 -3 -32 1
-61 9 -56 5 3 7 20 4 37 -4 26 -2 31 11 26 9 -3 20 -1 24 6 5 8 9 3 11 -13 2
-14 5 -31 8 -39z m-79 -126 c0 -8 -2 -13 -4 -11 -3 2 -4 7 -3 11 1 4 -11 21
-27 38 l-28 32 31 -28 c17 -15 31 -34 31 -42z m-57 21 c0 -2 -8 -10 -17 -17
-16 -13 -17 -12 -4 4 13 16 21 21 21 13z m107 -108 c-2 -7 2 -20 10 -30 11
-12 11 -18 2 -24 -7 -4 -10 -3 -6 3 4 6 0 16 -8 23 -7 6 -11 18 -8 26 6 17 16
19 10 2z m261 -241 c7 -16 8 -26 3 -23 -5 3 -14 20 -20 38 -13 38 0 26 17 -15z
m-187 6 c13 -16 12 -17 -3 -4 -17 13 -22 21 -14 21 2 0 10 -8 17 -17z m90 -96
c-10 -9 -11 -8 -5 6 3 10 9 15 12 12 3 -3 0 -11 -7 -18z m189 -73 c0 -6 7 -17
15 -24 8 -7 15 -22 15 -34 -1 -19 -2 -19 -11 -4 -5 10 -8 19 -7 21 7 9 -25 36
-35 30 -5 -3 -7 -1 -3 5 3 6 2 13 -3 17 -6 3 -8 12 -4 21 5 12 7 12 19 -3 7
-10 14 -23 14 -29z m-124 -60 c1 -9 -1 -13 -4 -9 -4 4 -7 10 -7 13 0 4 -4 14
-9 22 -7 12 -6 13 4 3 8 -7 15 -20 16 -29z m68 -40 c3 -8 2 -12 -4 -9 -6 3
-10 10 -10 16 0 14 7 11 14 -7z"/>
<path d="M5904 3258 c2 -16 -3 -33 -10 -39 -14 -11 -15 -10 -26 30 -2 8 -12
15 -22 17 -10 1 -15 0 -12 -3 3 -4 1 -12 -5 -19 -7 -8 -7 -14 1 -19 6 -3 8
-10 6 -14 -3 -4 11 -26 29 -50 27 -34 32 -47 25 -61 -7 -13 -7 -21 0 -25 10
-6 11 -5 14 14 0 5 4 13 9 17 11 11 9 26 -3 19 -6 -4 -10 -3 -9 2 4 15 -13 43
-22 37 -5 -3 -6 3 -2 12 4 12 3 15 -5 10 -8 -5 -10 -1 -5 10 4 10 2 15 -3 11
-6 -3 -11 4 -11 16 -2 19 0 18 16 -7 18 -26 20 -27 30 -10 8 14 11 15 11 4 0
-13 1 -13 11 0 8 12 9 9 4 -10 -5 -20 -4 -22 5 -10 9 12 10 10 5 -10 -5 -19
-4 -22 4 -10 13 19 14 9 1 -25 -7 -19 -6 -35 5 -62 11 -25 12 -39 5 -48 -8
-10 -6 -22 8 -44 10 -17 22 -28 25 -24 4 3 1 13 -6 21 -10 13 -9 14 1 8 10 -6
13 -2 10 15 -2 13 -9 23 -15 22 -7 -2 -10 4 -7 12 4 9 1 22 -6 30 -7 8 -9 15
-5 15 4 0 3 6 -2 13 -5 6 -6 23 -2 37 l7 25 2 -25 2 -25 9 25 8 25 -1 -25 c0
-14 1 -28 2 -32 1 -5 3 -11 5 -15 9 -34 18 -44 27 -31 7 9 8 7 4 -7 -3 -11 -1
-27 5 -35 8 -12 9 -9 4 10 -5 22 -5 23 6 6 9 -14 8 -21 -6 -35 -10 -9 -15 -11
-12 -6 3 6 1 17 -4 25 -8 11 -9 8 -6 -12 2 -15 1 -25 -4 -23 -6 4 -6 -11 1
-35 1 -3 6 6 11 19 7 19 12 21 24 11 13 -11 13 -18 -2 -57 -11 -30 -12 -43 -3
-48 11 -7 22 24 13 37 -3 7 -1 8 6 4 8 -5 11 -1 8 16 -2 12 -2 16 1 8 4 -12 7
-11 14 5 7 17 8 16 3 -6 -2 -14 2 -35 11 -47 8 -12 12 -27 8 -34 -4 -6 -3 -8
2 -5 6 3 10 -5 10 -18 0 -13 -4 -21 -8 -19 -5 3 -6 9 -3 14 3 5 1 11 -5 15
-12 7 -14 -18 -2 -29 4 -4 7 -11 7 -14 1 -4 6 -16 12 -27 6 -11 9 -29 7 -39
-1 -11 0 -25 4 -30 4 -6 7 -19 7 -28 0 -10 5 -18 10 -18 6 0 11 21 12 46 1 26
5 49 9 53 4 3 4 -10 2 -29 -3 -19 -2 -45 3 -58 6 -14 4 -30 -3 -42 -10 -15 -9
-22 4 -37 16 -17 18 -22 18 -40 0 -4 7 3 16 15 16 24 39 20 30 -5 -3 -8 -2
-11 3 -8 5 3 17 -5 25 -17 9 -12 16 -17 16 -11 0 7 -5 15 -10 18 -6 4 -9 14
-8 23 2 9 -4 17 -12 17 -8 0 -15 9 -15 21 0 11 -5 27 -11 35 -18 23 -44 81
-44 98 0 9 -7 25 -15 35 -16 21 -16 20 -19 -31 0 -12 -3 -24 -6 -26 -3 -3 -5
26 -5 65 0 38 -3 72 -7 74 -5 3 -5 16 -2 30 4 14 2 24 -4 24 -14 0 -33 58 -35
107 -1 12 -5 19 -9 17 -7 -5 -13 19 -9 39 1 5 -3 6 -8 3 -5 -3 -12 4 -16 17
-4 12 -8 24 -10 27 -22 51 -25 55 -24 35 2 -39 -2 -40 -15 -2 -8 21 -13 50
-11 64 l3 26 -20 -24 c-11 -14 -18 -18 -17 -9 1 8 0 22 -4 30 -3 8 -8 22 -10
30 -3 9 -6 5 -7 -10 l-2 -25 -9 25 c-9 25 -9 25 -5 -2z m30 -26 c3 -5 -1 -9
-9 -9 -8 0 -12 4 -9 9 3 4 7 8 9 8 2 0 6 -4 9 -8z m33 -49 c1 -22 -1 -24 -8
-10 -6 9 -7 22 -4 27 9 14 10 13 12 -17z m51 -59 c-4 -3 7 -30 22 -60 16 -30
24 -54 19 -54 -6 0 -3 -7 5 -16 23 -22 8 -39 -15 -18 -14 12 -16 20 -8 30 11
14 -14 76 -30 71 -5 -1 -10 3 -11 8 -1 6 -7 16 -13 24 -9 11 -9 13 0 8 6 -4
14 -3 18 3 3 5 9 10 12 10 4 0 4 -3 1 -6z m-41 -110 c-3 -3 -12 -4 -19 -1 -8
3 -5 6 6 6 11 1 17 -2 13 -5z m132 -129 c0 -5 -6 -1 -14 9 -8 11 -15 24 -15
30 0 5 7 1 15 -10 8 -10 14 -23 14 -29z m71 -198 c0 -7 8 -24 17 -37 24 -34
27 -56 6 -38 -14 11 -15 10 -10 -12 4 -14 4 -19 1 -12 -3 6 -10 10 -15 7 -5
-4 -6 2 -2 11 4 12 3 15 -5 10 -8 -5 -10 -1 -5 10 4 11 8 13 11 6 2 -7 8 -9
13 -6 6 4 6 10 0 18 -15 18 -33 68 -21 61 6 -3 10 -12 10 -18z"/>
<path d="M6003 3095 c0 -8 4 -12 9 -9 5 3 6 10 3 15 -9 13 -12 11 -12 -6z"/>
<path d="M6040 2996 c0 -2 8 -10 18 -17 15 -13 16 -12 3 4 -13 16 -21 21 -21
13z"/>
<path d="M5896 3191 c-4 -7 0 -24 10 -39 21 -33 31 -14 11 24 -9 18 -17 23
-21 15z"/>
<path d="M5956 3110 c5 -8 9 -17 10 -20 4 -21 26 -62 30 -57 3 3 0 16 -7 29
-7 12 -13 26 -14 30 0 4 -6 13 -14 20 -12 11 -12 10 -5 -2z"/>
<path d="M6044 2875 c-18 -28 -19 -35 -9 -56 7 -13 12 -31 10 -41 -2 -9 2 -22
10 -28 20 -17 29 6 11 31 -13 19 -12 25 5 56 16 28 17 37 7 52 -12 17 -15 15
-34 -14z m24 -18 c-7 -12 -11 -26 -9 -32 1 -5 -1 -6 -5 -2 -11 11 -14 38 -3
31 8 -5 13 10 10 29 -1 5 3 6 9 2 7 -4 6 -13 -2 -28z"/>
<path d="M6033 3285 c0 -8 4 -12 9 -9 5 3 6 10 3 15 -9 13 -12 11 -12 -6z"/>
<path d="M6025 3252 c3 -3 -1 -12 -7 -21 -7 -9 -8 -13 -3 -8 4 4 18 -1 29 -10
21 -18 21 -18 4 3 -12 14 -14 24 -8 30 7 7 6 11 -5 11 -8 0 -13 -3 -10 -5z"/>
<path d="M6055 3241 c-3 -5 -2 -12 3 -15 5 -3 9 1 9 9 0 17 -3 19 -12 6z"/>
<path d="M6081 3146 c-9 -10 -7 -17 6 -27 16 -12 17 -12 6 2 -10 12 -10 18 -1
27 7 7 9 12 6 12 -3 0 -11 -6 -17 -14z"/>
<path d="M6153 3063 c4 -3 1 -13 -6 -22 -11 -14 -10 -14 5 -2 16 12 16 31 1
31 -4 0 -3 -3 0 -7z"/>
<path d="M6159 3023 c-13 -16 -12 -17 4 -4 16 13 21 21 13 21 -2 0 -10 -8 -17
-17z"/>
<path d="M6221 2877 c-8 -11 -6 -18 9 -32 11 -10 17 -21 15 -26 -3 -4 -1 -10
4 -13 15 -10 6 22 -12 42 -13 14 -14 21 -5 30 7 7 9 12 6 12 -3 0 -11 -6 -17
-13z"/>
<path d="M6240 2866 c0 -2 8 -10 18 -17 15 -13 16 -12 3 4 -13 16 -21 21 -21
13z"/>
<path d="M6273 2792 c2 -12 6 -24 10 -28 3 -4 4 4 2 16 -6 30 -16 40 -12 12z"/>
<path d="M6290 2745 c0 -2 6 -8 13 -14 10 -8 14 -7 14 2 0 8 -6 14 -14 14 -7
0 -13 -1 -13 -2z"/>
<path d="M6318 2696 c4 -6 7 -14 7 -18 0 -19 11 -14 11 6 0 12 -6 23 -13 23
-6 0 -9 -5 -5 -11z"/>
<path d="M6355 2660 c1 -17 7 -36 14 -43 7 -9 7 -17 0 -24 -7 -7 -4 -14 8 -23
15 -12 16 -12 6 0 -10 11 -9 18 5 34 9 11 12 16 5 12 -14 -8 -32 21 -28 46 2
10 0 20 -5 23 -4 2 -6 -9 -5 -25z"/>
<path d="M6563 2523 c9 -2 23 -2 30 0 6 3 -1 5 -18 5 -16 0 -22 -2 -12 -5z"/>
<path d="M6708 2523 c6 -2 18 -2 25 0 6 3 1 5 -13 5 -14 0 -19 -2 -12 -5z"/>
<path d="M6773 2523 c15 -2 39 -2 55 0 15 2 2 4 -28 4 -30 0 -43 -2 -27 -4z"/>
<path d="M6667 1594 c-1 -1 -78 -4 -172 -8 -1404 -51 -2700 -358 -3530 -835
-109 -63 -308 -191 -333 -216 -11 -10 1 -24 70 -77 45 -36 131 -97 189 -135
l105 -69 195 48 c633 160 1462 274 2369 328 262 15 656 30 827 31 l152 0 93
97 c152 159 316 372 302 393 -4 7 -3 9 4 6 11 -7 95 117 95 140 0 7 4 13 9 13
9 0 71 120 65 126 -2 3 -10 -9 -17 -26 -7 -16 -16 -27 -20 -25 -5 3 -12 0 -16
-6 -4 -8 -3 -9 4 -5 7 4 12 2 12 -3 0 -6 -5 -11 -11 -11 -5 0 -7 -5 -3 -11 4
-7 1 -10 -7 -7 -8 3 -13 14 -13 26 1 12 -2 19 -6 17 -11 -7 -7 -30 9 -49 7 -9
9 -16 3 -16 -5 0 -15 7 -22 15 -14 17 -34 9 -26 -11 3 -7 1 -16 -4 -19 -6 -4
-10 -3 -11 2 0 4 -2 18 -5 31 -2 14 0 21 6 17 6 -4 7 1 3 11 -5 14 -8 13 -19
-7 -19 -34 -17 -4 1 31 9 17 13 30 9 30 -4 0 -1 7 6 15 7 8 9 15 5 15 -4 0 -1
8 6 18 13 15 12 16 -3 4 -10 -8 -17 -17 -16 -20 0 -4 -1 -10 -2 -14 -4 -13 -7
-27 -9 -39 0 -5 -5 -8 -10 -5 -10 7 -9 25 3 44 4 7 4 11 -1 10 -4 -2 -8 2 -8
7 0 5 3 9 6 8 4 -1 15 8 25 20 l19 22 -22 -19 c-13 -11 -23 -16 -23 -11 0 4
-7 2 -15 -5 -11 -9 -12 -16 -5 -25 7 -9 7 -15 1 -19 -18 -11 -24 34 -7 53 15
16 15 19 -3 35 -21 19 -22 36 -2 60 10 12 40 16 139 19 70 2 11 3 -131 3 -142
-1 -259 -2 -260 -2z m119 -20 c-3 -8 -2 -13 3 -10 4 3 7 -7 5 -22 l-4 -27 9
25 c7 18 9 20 10 7 1 -10 9 -32 18 -50 9 -18 16 -36 15 -40 -1 -5 2 -6 7 -3 5
3 7 -4 5 -16 -4 -21 -4 -22 5 -3 l10 20 1 -20 c1 -19 2 -19 10 1 4 12 6 39 4
60 -3 21 -6 48 -7 59 -2 16 -9 20 -39 20 -21 0 -38 3 -38 7 0 4 27 7 60 7 33
-1 57 -5 54 -10 -3 -5 -9 -7 -13 -5 -15 10 -5 -44 12 -61 15 -16 15 -18 0 -35
-13 -15 -14 -23 -5 -44 7 -14 17 -22 22 -19 6 4 10 3 9 -2 -1 -4 0 -12 1 -18
2 -5 3 -21 4 -35 1 -17 6 -24 16 -22 8 2 12 0 8 -3 -4 -4 -3 -16 3 -27 8 -15
13 -17 24 -8 8 6 11 19 8 28 -6 14 -4 15 9 4 16 -13 13 -52 -4 -52 -5 0 -6 5
-2 12 4 7 3 8 -5 4 -8 -5 -9 -12 -2 -19 6 -8 0 -24 -19 -50 -19 -25 -30 -34
-34 -25 -3 7 -4 3 -2 -10 2 -12 0 -20 -4 -17 -8 5 -25 -13 -25 -27 0 -3 -3 -9
-6 -12 -3 -4 -5 10 -4 29 1 20 -4 40 -11 46 -10 8 -12 3 -10 -25 2 -20 0 -34
-4 -31 -5 3 -7 13 -5 23 1 9 -5 31 -16 49 -11 21 -14 35 -8 39 7 4 3 14 -9 28
-11 11 -18 31 -17 44 1 13 -2 25 -6 28 -4 2 -1 17 7 32 7 15 14 34 14 42 -1 8
-10 -3 -20 -24 -11 -22 -18 -50 -16 -62 3 -15 0 -23 -7 -21 -7 1 -11 -4 -9
-11 1 -8 -2 -11 -8 -7 -8 5 -7 11 2 22 14 17 16 63 3 63 -6 0 -10 -4 -10 -9 0
-6 -7 -16 -15 -23 -12 -11 -12 -11 -1 5 7 9 10 17 6 17 -3 0 2 11 13 25 19 24
20 71 2 60 -5 -3 -6 -13 -3 -23 2 -11 -5 -26 -19 -37 l-23 -20 20 23 c15 19
17 27 8 41 -7 11 -10 34 -8 52 3 22 1 29 -6 22 -16 -16 -18 -46 -3 -69 11 -19
10 -24 -9 -40 -21 -18 -22 -18 -5 0 15 17 15 21 1 42 -8 13 -12 24 -8 24 4 0
2 7 -5 15 -7 8 -16 13 -19 10 -4 -2 -8 2 -8 10 0 8 4 12 8 9 10 -6 31 31 22
39 -3 4 4 5 15 2 12 -2 24 0 27 6 10 15 28 10 21 -7z m-79 -9 c0 -6 -6 -12
-12 -12 -6 0 -12 6 -12 12 0 6 6 12 12 12 6 0 12 -6 12 -12z m124 -7 c1 -25 7
-46 18 -65 8 -15 10 -12 6 15 -2 17 1 32 6 32 5 0 9 -3 10 -7 0 -5 2 -25 4
-46 4 -34 2 -37 -11 -26 -28 23 -62 109 -43 109 5 0 9 -6 10 -12z m39 1 c0 -4
-7 -9 -15 -13 -9 -3 -15 0 -15 8 0 7 7 13 15 13 8 0 15 -4 15 -8z m-47 -265
c14 -17 14 -21 2 -21 -8 0 -12 4 -9 8 2 4 0 10 -6 14 -5 3 -10 11 -10 17 0 6
1 9 3 7 1 -2 10 -13 20 -25z m64 -169 c0 -8 -4 -12 -9 -9 -5 3 -6 10 -3 15 9
13 12 11 12 -6z"/>
<path d="M6765 1570 c-4 -6 -10 -8 -15 -5 -10 6 -41 -40 -33 -49 3 -3 13 3 20
14 20 28 33 16 27 -26 -2 -22 0 -33 6 -29 5 3 10 14 11 23 0 9 6 1 13 -18 8
-21 10 -42 5 -51 -5 -9 -6 -19 -2 -22 3 -4 13 8 22 26 15 29 15 35 1 59 -8 14
-18 24 -22 22 -10 -6 -18 10 -20 40 -3 29 -4 31 -13 16z m53 -92 c10 -12 10
-18 1 -24 -7 -4 -9 -3 -5 4 3 6 2 13 -4 17 -5 3 -10 11 -10 17 0 6 1 9 3 7 1
-2 8 -11 15 -21z"/>
<path d="M6895 1501 c-3 -5 -2 -12 3 -15 5 -3 9 1 9 9 0 17 -3 19 -12 6z"/>
<path d="M6885 1421 c-6 -19 -9 -21 -17 -10 -8 11 -8 10 -4 -4 3 -10 6 -22 6
-25 0 -4 5 0 10 8 8 11 9 7 5 -15 -4 -23 -3 -25 3 -10 8 17 10 16 16 -15 14
-67 17 -74 28 -59 6 10 7 6 3 -11 -5 -19 -4 -21 4 -10 8 12 10 9 8 -13 -1 -15
-6 -27 -11 -26 -5 0 -13 -5 -18 -13 -6 -8 -7 -5 -2 12 6 22 5 23 -10 11 -14
-12 -15 -16 -3 -30 8 -9 12 -22 10 -28 -3 -7 -2 -13 1 -13 4 0 11 12 16 26 6
14 14 23 19 19 5 -3 20 9 32 27 13 17 18 29 12 25 -6 -4 -16 6 -23 24 -10 22
-15 27 -21 17 -6 -9 -9 -5 -10 12 l-1 25 -8 -25 c-7 -23 -8 -23 -9 -3 -1 12 4
34 10 50 5 15 7 24 3 20 -5 -4 -16 7 -25 25 -16 31 -17 31 -24 9z m34 -61 c0
-8 -6 0 -14 19 -8 18 -15 36 -15 40 1 13 29 -45 29 -59z m50 -122 c-13 -25
-14 -24 -15 23 -1 38 0 39 12 18 8 -16 9 -30 3 -41z"/>
<path d="M6833 1395 c-6 -14 -8 -27 -3 -30 4 -2 6 -16 5 -29 -2 -14 5 -32 15
-41 17 -15 18 -15 25 14 4 19 0 44 -12 71 l-18 40 -12 -25z m30 -45 c4 -14 2
-32 -4 -40 -8 -11 -9 -9 -4 9 4 14 3 21 -2 18 -6 -4 -8 4 -5 20 4 19 2 24 -8
18 -9 -6 -11 -4 -5 4 9 16 21 4 28 -29z"/>
<path d="M6887 1319 c-4 -21 -14 -42 -22 -49 -11 -9 -12 -16 -2 -31 11 -18 12
-18 33 2 21 20 22 20 33 2 6 -10 11 -14 11 -10 0 4 -7 19 -16 33 -9 13 -20 39
-23 57 l-7 32 -7 -36z m16 -39 c3 -10 -1 -24 -8 -30 -10 -9 -13 -7 -10 7 2 10
4 24 4 31 1 18 8 15 14 -8z"/>
<path d="M6933 1568 c-13 -22 -12 -37 5 -50 13 -11 14 -11 7 2 -13 20 -13 32
-2 48 5 6 7 12 4 12 -3 0 -9 -6 -14 -12z"/>
<path d="M7003 1453 c4 -3 1 -13 -6 -22 -11 -14 -10 -14 5 -2 16 12 16 31 1
31 -4 0 -3 -3 0 -7z"/>
<path d="M7013 1415 c4 -5 0 -16 -9 -26 -12 -14 -13 -18 -2 -25 7 -4 10 -3 5
1 -4 5 0 16 9 26 12 14 13 18 2 25 -7 4 -10 3 -5 -1z"/>
</g>
</svg>
