<?xml version="1.0" standalone="no"?>
<!DOCTYPE svg PUBLIC "-//W3C//DTD SVG 20010904//EN"
 "http://www.w3.org/TR/2001/REC-SVG-20010904/DTD/svg10.dtd">
<svg version="1.0" xmlns="http://www.w3.org/2000/svg"
 width="920.000000pt" height="920.000000pt" viewBox="0 0 920.000000 920.000000"
 preserveAspectRatio="xMidYMid meet">

<g transform="translate(0.000000,920.000000) scale(0.100000,-0.100000)"
fill="#000000" stroke="none">
<path d="M2280 8359 c-379 -34 -752 -206 -1029 -473 -266 -258 -425 -550 -508
-936 -17 -81 -18 -195 -18 -2350 0 -2155 1 -2269 18 -2350 39 -180 84 -312
155 -455 224 -452 631 -782 1122 -910 196 -51 52 -48 2515 -51 1260 -1 2333 2
2385 6 408 38 790 224 1082 529 127 132 230 281 308 444 67 140 97 226 137
393 l28 119 0 2275 0 2275 -28 119 c-41 170 -70 254 -142 401 -261 540 -795
911 -1387 965 -117 10 -4522 10 -4638 -1z m1643 -2133 c397 -77 652 -247 795
-531 162 -320 127 -780 -80 -1060 -230 -309 -595 -444 -1200 -445 l-148 0 0
-452 c0 -249 -4 -459 -8 -466 -7 -9 -76 -12 -313 -10 l-304 3 0 1485 0 1485
160 5 c88 3 351 5 585 5 357 -1 439 -4 513 -19z m2312 -668 c183 -18 345 -59
375 -96 13 -16 16 -58 15 -270 0 -138 -4 -254 -8 -258 -4 -5 -29 0 -55 10
-230 90 -307 106 -517 113 -146 5 -165 3 -217 -17 -74 -27 -118 -76 -118 -129
0 -88 72 -139 359 -255 200 -81 284 -122 392 -192 75 -50 166 -137 209 -202
66 -99 97 -239 86 -385 -27 -358 -289 -593 -725 -651 -273 -37 -653 7 -831 96
l-65 33 -3 278 c-3 312 -7 297 75 249 58 -34 178 -84 253 -105 195 -56 465
-68 575 -25 118 45 146 146 62 228 -45 44 -112 79 -287 150 -209 84 -231 94
-337 156 -162 95 -278 223 -322 356 -111 333 34 670 354 823 193 92 431 123
730 93z"/>
<path d="M3290 5224 l0 -476 238 5 c205 4 247 7 312 26 253 75 359 221 348
483 -4 99 -7 113 -41 181 -45 91 -103 146 -200 193 -109 52 -195 64 -443 64
l-214 0 0 -476z"/>
</g>
</svg>
