<?xml version="1.0" standalone="no"?>
<!DOCTYPE svg PUBLIC "-//W3C//DTD SVG 20010904//EN"
 "http://www.w3.org/TR/2001/REC-SVG-20010904/DTD/svg10.dtd">
<svg version="1.0" xmlns="http://www.w3.org/2000/svg"
 width="150.000000pt" height="126.000000pt" viewBox="0 0 150.000000 126.000000"
 preserveAspectRatio="xMidYMid meet">

<g transform="translate(0.000000,126.000000) scale(0.100000,-0.100000)"
fill="#000000" stroke="none">
<path d="M680 1170 c-261 -34 -440 -230 -440 -480 0 -272 211 -479 495 -484
84 -1 210 18 220 34 2 3 -25 35 -60 70 l-64 64 -73 1 c-95 1 -161 30 -223 96
-125 134 -120 324 12 451 92 89 226 109 346 50 113 -56 167 -149 167 -290 l0
-78 75 -74 c41 -41 76 -72 79 -69 2 2 14 29 26 59 27 68 37 194 21 272 -52
248 -307 414 -581 378z"/>
<path d="M670 687 l0 -73 60 -59 60 -59 0 72 0 72 70 0 c39 0 70 4 70 8 0 4
-24 31 -53 60 l-53 52 -77 0 -77 0 0 -73z"/>
<path d="M860 501 l0 -79 120 -115 119 -115 81 -4 80 -3 0 70 0 70 -128 128
-127 127 -73 0 -72 0 0 -79z"/>
</g>
</svg>
